<?xml version="1.0" encoding="UTF-8" standalone="no"?>
<svg
   xmlns:dc="http://purl.org/dc/elements/1.1/"
   xmlns:cc="http://creativecommons.org/ns#"
   xmlns:rdf="http://www.w3.org/1999/02/22-rdf-syntax-ns#"
   xmlns:svg="http://www.w3.org/2000/svg"
   xmlns="http://www.w3.org/2000/svg"
   viewBox="0 0 688.1333 302.35999"
   height="302.35999"
   width="688.1333"
   xml:space="preserve"
   id="svg2"
   version="1.1"><metadata
     id="metadata8"><rdf:RDF><cc:Work
         rdf:about=""><dc:format>image/svg+xml</dc:format><dc:type
           rdf:resource="http://purl.org/dc/dcmitype/StillImage" /></cc:Work></rdf:RDF></metadata><defs
     id="defs6" /><g
     transform="matrix(1.3333333,0,0,-1.3333333,0,302.36)"
     id="g10"><g
       transform="scale(0.1)"
       id="g12"><path
         id="path14"
         style="fill:#231f20;fill-opacity:1;fill-rule:evenodd;stroke:none"
         d="m 5157.92,1501.7 v 40.66 h -209.53 v -40.66 h 82.15 v -257.69 h 45.26 v 257.69 h 82.12" /><path
         id="path16"
         style="fill:#231f20;fill-opacity:1;fill-rule:evenodd;stroke:none"
         d="m 4957.57,1244.01 -109.33,298.35 h -36.45 l -109.4,-298.35 h 48.22 l 20.52,59.92 h 117.75 l 20.53,-59.92 z m -81.27,98.46 h -91.75 l 46.5,132.41 z" /><path
         id="path18"
         style="fill:#231f20;fill-opacity:1;fill-rule:evenodd;stroke:none"
         d="m 4711.69,1501.7 v 40.66 h -209.51 v -40.66 h 82.14 v -257.69 h 45.28 v 257.69 h 82.09" /><path
         id="path20"
         style="fill:#231f20;fill-opacity:1;fill-rule:evenodd;stroke:none"
         d="m 4450.69,1244.01 v 298.35 h -45.27 v -298.35 h 45.27" /><path
         id="path22"
         style="fill:#231f20;fill-opacity:1;fill-rule:evenodd;stroke:none"
         d="m 4344.69,1329.07 c 0,25.56 -7.95,46.93 -24.3,61.17 -12.53,11.32 -28.06,18.02 -55.71,22.21 l -33.96,5.03 c -13.8,2.11 -25.98,7.12 -33.52,13.82 -7.97,7.13 -11.3,16.77 -11.3,27.66 0,26.39 19.26,46.51 54.46,46.51 25.15,0 46.53,-5.45 64.97,-23.04 l 28.88,28.48 c -25.54,23.89 -53.2,33.95 -92.57,33.95 -62.02,0 -99.73,-35.62 -99.73,-87.57 0,-24.31 7.12,-43.15 21.76,-56.99 13,-12.15 32.28,-20.53 56.6,-23.89 l 35.18,-5.03 c 17.58,-2.51 25.14,-5.44 32.69,-12.57 7.96,-7.11 11.75,-18.01 11.75,-31.01 0,-28.91 -22.67,-45.66 -61.62,-45.66 -30.58,0 -54.45,6.7 -76.22,28.49 l -30.19,-29.75 c 28.49,-28.91 60.75,-39.39 105.58,-39.39 62.45,0 107.25,32.69 107.25,87.58" /><path
         id="path24"
         style="fill:#231f20;fill-opacity:1;fill-rule:evenodd;stroke:none"
         d="M 4101.32,1244.01 4032.61,1376 c 33.51,9.22 59.49,36.45 59.49,79.19 0,50.7 -36.05,87.17 -92.59,87.17 h -115.66 v -298.35 h 45.24 v 125.71 h 56.59 l 62.82,-125.71 z m -54.48,210.76 c 0,-29.34 -20.54,-46.51 -50.69,-46.51 h -67.06 v 93.44 h 67.06 c 30.15,0 50.69,-17.6 50.69,-46.93" /><path
         id="path26"
         style="fill:#231f20;fill-opacity:1;fill-rule:evenodd;stroke:none"
         d="m 3821.91,1244.01 v 40.64 h -145.38 v 89.67 h 124.03 v 40.22 h -124.03 v 87.16 h 145.38 v 40.66 h -190.63 v -298.35 h 190.63" /><path
         id="path28"
         style="fill:#231f20;fill-opacity:1;fill-rule:evenodd;stroke:none"
         d="m 3590.21,1542.36 h -47.78 l -68.71,-217.07 -68.72,217.07 h -46.93 l 98.04,-298.35 h 35.2 l 98.9,298.35" /><path
         id="path30"
         style="fill:#231f20;fill-opacity:1;fill-rule:evenodd;stroke:none"
         d="m 3317.02,1244.01 v 298.35 h -45.26 v -298.35 h 45.26" /><path
         id="path32"
         style="fill:#231f20;fill-opacity:1;fill-rule:evenodd;stroke:none"
         d="m 3193.85,1244.01 v 298.35 h -45.25 v -209.52 l -137.86,209.52 h -41.47 v -298.35 h 45.24 v 209.93 l 137.86,-209.93 h 41.48" /><path
         id="path34"
         style="fill:#231f20;fill-opacity:1;fill-rule:evenodd;stroke:none"
         d="m 2895.99,1344.58 v 197.78 h -45.26 v -195.7 c 0,-39.8 -24.72,-64.52 -62.01,-64.52 -37.3,0 -61.6,24.72 -61.6,64.52 v 195.7 h -45.24 v -197.78 c 0,-61.61 46.07,-103.09 106.84,-103.09 60.75,0 107.27,41.48 107.27,103.09" /><path
         id="path36"
         style="fill:#231f20;fill-opacity:1;fill-rule:evenodd;stroke:none"
         d="m 4802.97,1573.34 v 45.27 h -38.56 v -45.27 h 38.56" /><path
         id="path38"
         style="fill:#231f20;fill-opacity:1;fill-rule:evenodd;stroke:none"
         d="m 4893.49,1573.34 v 45.27 h -38.55 v -45.27 h 38.55" /><path
         id="path40"
         style="fill:#231f20;fill-opacity:1;fill-rule:evenodd;stroke:none"
         d="m 4892.02,1739.24 v 298.35 h -45.27 V 1910.2 h -121.08 v 127.39 h -45.26 v -298.35 h 45.26 v 130.31 h 121.08 v -130.31 h 45.27" /><path
         id="path42"
         style="fill:#231f20;fill-opacity:1;fill-rule:evenodd;stroke:none"
         d="m 4620.06,1828.48 h -45.66 c -7.15,-30.16 -27.66,-51.1 -60.74,-51.1 -17.6,0 -33.56,6.69 -44.04,18.01 -14.65,15.92 -17.99,33.09 -17.99,93.01 0,59.92 3.34,77.1 17.99,93.04 10.48,11.3 26.44,18 44.04,18 33.08,0 53.18,-20.95 60.32,-51.12 h 46.08 c -10.45,59.51 -51.56,91.77 -106.4,91.77 -31.02,0 -57.85,-11.3 -78.38,-31.84 -29.33,-29.33 -28.91,-62.44 -28.91,-119.85 0,-57.4 -0.42,-90.5 28.91,-119.82 20.53,-20.54 47.36,-31.85 78.38,-31.85 54.02,0 96.33,32.26 106.4,91.75" /><path
         id="path44"
         style="fill:#231f20;fill-opacity:1;fill-rule:evenodd;stroke:none"
         d="m 4356.55,1824.3 c 0,25.56 -7.99,46.93 -24.31,61.17 -12.57,11.32 -28.07,18.01 -55.74,22.2 l -33.92,5.04 c -13.83,2.1 -25.99,7.13 -33.53,13.83 -7.96,7.13 -11.33,16.76 -11.33,27.66 0,26.39 19.3,46.5 54.49,46.5 25.14,0 46.53,-5.45 64.94,-23.04 l 28.94,28.49 c -25.58,23.89 -53.21,33.94 -92.63,33.94 -62.01,0 -99.71,-35.62 -99.71,-87.57 0,-24.3 7.09,-43.16 21.79,-56.99 12.98,-12.15 32.26,-20.53 56.55,-23.89 l 35.2,-5.02 c 17.6,-2.51 25.16,-5.44 32.7,-12.57 7.96,-7.12 11.71,-18.01 11.71,-31.02 0,-28.9 -22.61,-45.65 -61.6,-45.65 -30.58,0 -54.45,6.69 -76.24,28.48 l -30.16,-29.75 c 28.45,-28.91 60.76,-39.38 105.57,-39.38 62.43,0 107.28,32.68 107.28,87.57" /><path
         id="path46"
         style="fill:#231f20;fill-opacity:1;fill-rule:evenodd;stroke:none"
         d="m 4092.17,1739.24 v 298.35 h -45.27 v -298.35 h 45.27" /><path
         id="path48"
         style="fill:#231f20;fill-opacity:1;fill-rule:evenodd;stroke:none"
         d="m 3969.02,1739.24 v 298.35 h -45.27 v -209.52 l -137.87,209.52 h -41.47 v -298.35 h 45.25 v 209.92 l 137.87,-209.92 h 41.49" /><path
         id="path50"
         style="fill:#231f20;fill-opacity:1;fill-rule:evenodd;stroke:none"
         d="m 3666.47,1739.24 v 298.35 h -45.25 V 1910.2 h -121.09 v 127.39 h -45.25 v -298.35 h 45.25 v 130.31 h 121.09 v -130.31 h 45.25" /><path
         id="path52"
         style="fill:#231f20;fill-opacity:1;fill-rule:evenodd;stroke:none"
         d="m 3394.53,1828.48 h -45.67 c -7.12,-30.16 -27.65,-51.1 -60.76,-51.1 -17.59,0 -33.52,6.69 -43.99,18.01 -14.67,15.92 -18.02,33.09 -18.02,93.01 0,59.92 3.35,77.1 18.02,93.04 10.47,11.3 26.4,18 43.99,18 33.11,0 53.21,-20.95 60.34,-51.12 h 46.09 c -10.47,59.51 -51.53,91.77 -106.43,91.77 -31,0 -57.82,-11.3 -78.35,-31.84 -29.33,-29.33 -28.91,-62.44 -28.91,-119.85 0,-57.4 -0.42,-90.5 28.91,-119.82 20.53,-20.54 47.35,-31.85 78.35,-31.85 54.06,0 96.38,32.26 106.43,91.75" /><path
         id="path54"
         style="fill:#231f20;fill-opacity:1;fill-rule:evenodd;stroke:none"
         d="m 3129.82,1739.24 v 40.65 h -145.41 v 89.66 h 124.03 v 40.22 h -124.03 v 87.16 h 145.41 v 40.66 h -190.65 v -298.35 h 190.65" /><path
         id="path56"
         style="fill:#231f20;fill-opacity:1;fill-rule:evenodd;stroke:none"
         d="m 2887.7,1996.93 v 40.66 h -209.5 v -40.66 h 82.13 v -257.69 h 45.25 v 257.69 h 82.12" /><path
         id="path58"
         style="fill:#231f20;fill-opacity:1;fill-rule:evenodd;stroke:none"
         d="m 5160.59,1739.24 v 40.65 h -145.36 v 89.66 h 124.01 v 40.22 h -124.01 v 87.16 h 145.36 v 40.66 h -190.64 v -298.35 h 190.64" /><path
         id="path60"
         style="fill:#231f20;fill-opacity:1;fill-rule:evenodd;stroke:none"
         d="m 3034,1032.19 h -48.25 l -52.49,-215.452 -60.53,215.452 h -36.83 l -60.51,-215.452 -52.48,215.452 h -48.25 l 78.72,-301.35 h 39.78 l 60.95,211.191 61.38,-211.191 h 39.78 l 78.73,301.35" /><path
         id="path62"
         style="fill:#231f20;fill-opacity:1;fill-rule:evenodd;stroke:none"
         d="m 3684.34,730.84 v 301.35 h -45.7 V 820.57 l -139.25,211.62 H 3457.5 V 730.84 h 45.71 V 942.891 L 3642.46,730.84 h 41.88" /><path
         id="path64"
         style="fill:#231f20;fill-opacity:1;fill-rule:evenodd;stroke:none"
         d="m 3394.97,730.84 v 41.058 h -146.88 v 90.582 h 125.29 v 40.622 h -125.29 v 88.027 h 146.88 v 41.061 H 3202.38 V 730.84 h 192.59" /><path
         id="path66"
         style="fill:#231f20;fill-opacity:1;fill-rule:evenodd;stroke:none"
         d="m 3123.68,730.84 v 301.35 h -45.72 V 730.84 h 45.72" /><path
         id="path68"
         style="fill:#231f20;fill-opacity:1;fill-rule:evenodd;stroke:none"
         d="m 2040.94,2267.71 c 125.16,0 226.31,-101.58 226.31,-226.89 l 0.47,-1813.949 C 2267.72,101.57 2165.79,0 2040.63,0 H 226.781 C 101.621,0 0,101.57 0,226.871 L 0.160156,2040.82 c 0,125.31 101.300844,226.89 226.460844,226.89 z M 480.801,922.73 v 804.62 H 722.93 V 922.73 Z M 174.348,2039.91 H 1021.26 V 1797.77 H 174.348 Z M 685.801,631.23 H 604.52 L 542.309,379.551 469.438,631.23 h -58.29 L 338.277,379.551 276.621,631.23 h -81.273 l 106.5,-399.101 h 65.011 l 73.434,242.152 73.434,-242.152 h 65.019 z M 2037.06,232.129 V 631.23 h -77.92 V 386.84 l -158.07,244.39 h -69.5 V 232.129 h 77.91 v 244.949 l 158.07,-244.949 z m -558.18,0 v 69.512 h -184.97 v 96.968 h 157.51 v 69.512 h -157.51 v 93.59 h 184.97 V 631.23 H 1215.99 V 232.129 Z m -529.763,0 V 631.23 H 871.195 V 232.129 Z m 599.423,684.18 -12.81,1.082 C 1308.74,941.09 1133.21,1132.9 1133.21,1366.17 v 673.74 h 245.4 l -0.4,-667.76 c 0,-97.66 67.91,-185.48 159.03,-208.61 4.01,-0.96 7.13,-1.6 11.22,-2.32 z m 73.48,245.261 c 3.68,0.67 6.41,1.11 10.01,1.97 91.14,23.12 159.06,110.95 159.06,208.61 l -2.09,667.76 h 246.97 v -671.27 c 0.23,-233.28 -176.92,-427.281 -403.94,-451.261 l -9.96,-1.027 -0.05,245.218" /><path
         id="path70"
         style="fill:#231f20;fill-opacity:1;fill-rule:nonzero;stroke:none"
         d="m 2803.26,232.441 h -35.91 l -94.08,285.2 h 45.75 l 67.56,-218.922 65,218.922 h 45.75 l -94.07,-285.2" /><path
         id="path72"
         style="fill:#231f20;fill-opacity:1;fill-rule:nonzero;stroke:none"
         d="m 2923.41,232.441 v 203.528 h 40.62 V 232.441 Z m 0,244.161 v 41.039 h 40.62 v -41.039 h -40.62" /><path
         id="path74"
         style="fill:#231f20;fill-opacity:1;fill-rule:nonzero;stroke:none"
         d="m 3133.36,354.73 c -0.29,12.25 -3.64,22.872 -10.05,31.848 -6.42,8.992 -16.9,13.461 -31.43,13.461 -12.83,0 -23.31,-4.469 -31.44,-13.461 -8.12,-8.976 -12.61,-19.598 -13.46,-31.848 z m -86.38,-35.929 c 0,-15.09 4.34,-27.289 13.03,-36.551 8.7,-9.262 20.61,-13.898 35.72,-13.898 8.54,0 16.59,2.367 24.16,7.058 7.54,4.711 14.17,10.192 19.88,16.461 l 29.07,-29.07 c -9.12,-10.852 -20.17,-19.039 -33.14,-24.582 -12.97,-5.571 -26.58,-8.348 -40.84,-8.348 -16.24,0 -30,2.219 -41.25,6.629 -11.27,4.41 -20.38,10.609 -27.37,18.609 -6.99,7.969 -12.05,17.442 -15.19,28.43 -3.13,10.973 -4.7,23.012 -4.7,36.133 v 31.637 c 0,12.543 2.07,24.16 6.2,34.863 4.13,10.668 9.98,19.887 17.54,27.566 7.55,7.703 16.53,13.762 26.94,18.184 10.4,4.398 21.87,6.629 34.42,6.629 13.68,0 25.65,-2.371 35.91,-7.051 10.27,-4.73 18.89,-11.078 25.88,-19.031 6.97,-7.989 12.18,-17.328 15.6,-28.028 3.43,-10.691 5.13,-22.16 5.13,-34.41 v -31.23 h -126.99" /><path
         id="path76"
         style="fill:#231f20;fill-opacity:1;fill-rule:nonzero;stroke:none"
         d="m 3338.16,232.441 v 127.848 c 0,5.41 -0.57,10.473 -1.72,15.18 -1.15,4.703 -3.15,8.902 -6.02,12.609 -2.87,3.703 -6.8,6.633 -11.81,8.762 -5.02,2.148 -11.25,3.199 -18.71,3.199 -7.16,0 -13.47,-1.258 -18.91,-3.828 -5.44,-2.57 -9.96,-5.922 -13.54,-10.039 -3.58,-4.141 -6.31,-8.852 -8.17,-14.113 -1.86,-5.289 -2.79,-10.637 -2.79,-16.047 V 232.441 h -40.63 v 203.528 h 40.63 l 0.42,-22.66 c 6.56,7.98 14.9,14.191 25.02,18.613 10.12,4.398 20.46,6.629 31,6.629 11.98,0 22.09,-1.801 30.37,-5.352 8.26,-3.578 15.03,-8.48 20.3,-14.758 5.27,-6.269 9.12,-13.609 11.55,-22.031 2.42,-8.398 3.63,-17.441 3.63,-27.14 V 232.441 h -40.62" /><path
         id="path78"
         style="fill:#231f20;fill-opacity:1;fill-rule:nonzero;stroke:none"
         d="m 3550.24,232.441 v 127.848 c 0,5.41 -0.57,10.473 -1.72,15.18 -1.16,4.703 -3.15,8.902 -6.02,12.609 -2.87,3.703 -6.81,6.633 -11.81,8.762 -5.02,2.148 -11.26,3.199 -18.71,3.199 -7.16,0 -13.47,-1.258 -18.92,-3.828 -5.43,-2.57 -9.96,-5.922 -13.53,-10.039 -3.58,-4.141 -6.31,-8.852 -8.17,-14.113 -1.86,-5.289 -2.8,-10.637 -2.8,-16.047 V 232.441 h -40.61 v 203.528 h 40.61 l 0.43,-22.66 c 6.56,7.98 14.9,14.191 25.02,18.613 10.12,4.398 20.45,6.629 31,6.629 11.98,0 22.09,-1.801 30.36,-5.352 8.26,-3.578 15.03,-8.48 20.31,-14.758 5.27,-6.269 9.12,-13.609 11.55,-22.031 2.42,-8.398 3.63,-17.441 3.63,-27.14 V 232.441 h -40.62" /><path
         id="path80"
         style="fill:#231f20;fill-opacity:1;fill-rule:nonzero;stroke:none"
         d="m 3746.5,319.238 h -55.15 c -19.11,0 -28.65,-8.687 -28.65,-26.078 0,-11.422 2.91,-18.969 8.76,-22.66 5.84,-3.711 15.18,-5.551 28.01,-5.551 5.41,0 10.9,0.621 16.46,1.91 5.55,1.289 10.61,3.422 15.18,6.422 4.56,2.981 8.26,6.758 11.12,11.328 2.85,4.563 4.27,10.25 4.27,17.09 z m 0,-86.797 v 20.52 c -2.85,-4.551 -6.41,-8.332 -10.68,-11.313 -4.28,-3 -8.92,-5.359 -13.9,-7.07 -4.99,-1.707 -10.2,-2.906 -15.62,-3.637 -5.4,-0.711 -10.54,-1.07 -15.38,-1.07 -9.41,0 -18.18,0.938 -26.3,2.777 -8.13,1.872 -15.18,5.141 -21.17,9.84 -5.99,4.692 -10.69,11.051 -14.11,19.043 -3.42,7.957 -5.14,17.938 -5.14,29.91 0,11.411 1.72,21.168 5.14,29.309 3.42,8.109 8.12,14.672 14.11,19.672 5.99,4.969 12.97,8.609 20.95,10.887 7.98,2.3 16.68,3.421 26.08,3.421 h 56.02 V 365 c 0,12.82 -2.71,22.078 -8.12,27.789 -5.42,5.699 -15.69,8.539 -30.78,8.539 -7.14,0 -14.84,-0.918 -23.09,-2.769 -8.27,-1.868 -15.4,-6.481 -21.38,-13.899 l -27.37,26.078 c 4.84,5.981 10.32,10.852 16.45,14.551 6.13,3.699 12.47,6.551 19.01,8.531 6.53,2 13.28,3.282 20.24,3.871 6.96,0.579 13.85,0.86 20.67,0.86 26.99,0 46.23,-5.641 57.74,-16.903 11.5,-11.269 17.25,-28.449 17.25,-51.539 V 232.441 h -40.62" /><path
         id="path82"
         style="fill:#231f20;fill-opacity:1;fill-rule:nonzero;stroke:none"
         d="m 3896.25,125.539 v 427.602 h 41.9 V 125.539 h -41.9" /><path
         id="path84"
         style="fill:#231f20;fill-opacity:1;fill-rule:nonzero;stroke:none"
         d="m 4126.27,459.488 -42.33,-124.867 h 84.24 z m 76.11,-227.047 -21.37,63.707 h -109.47 l -21.79,-63.707 H 4004 l 104.75,285.2 h 35.92 l 103.46,-285.2 h -45.75" /><path
         id="path86"
         style="fill:#231f20;fill-opacity:1;fill-rule:nonzero;stroke:none"
         d="m 4303.72,435.969 v -127.86 c 0,-5.398 0.57,-10.531 1.72,-15.379 1.12,-4.839 3.13,-9.039 5.99,-12.609 2.84,-3.57 6.78,-6.41 11.75,-8.543 4.99,-2.156 11.19,-3.226 18.6,-3.226 7.11,0 13.4,1.289 18.82,3.847 5.39,2.582 9.9,5.93 13.48,10.051 3.55,4.129 6.26,8.852 8.1,14.109 1.86,5.27 2.79,10.629 2.79,16.039 v 123.571 h 40.62 V 232.441 h -40.62 v 22.668 c -6.58,-8 -14.91,-14.199 -25.02,-18.609 -10.12,-4.41 -20.45,-6.629 -30.99,-6.629 -11.98,0 -22.1,1.801 -30.35,5.359 -8.3,3.551 -15.06,8.469 -20.31,14.739 -5.29,6.269 -9.14,13.613 -11.57,22.019 -2.41,8.41 -3.62,17.453 -3.62,27.16 v 136.821 h 40.61" /><path
         id="path88"
         style="fill:#231f20;fill-opacity:1;fill-rule:nonzero;stroke:none"
         d="m 4622.28,291.441 c 0,-12.261 -2.19,-22.519 -6.62,-30.781 -4.41,-8.281 -10.27,-14.969 -17.52,-20.101 -7.27,-5.129 -15.63,-8.758 -25.03,-10.911 -9.4,-2.128 -19.24,-3.199 -29.51,-3.199 -16.24,0 -31.77,2.442 -46.61,7.27 -14.81,4.863 -27.91,13.261 -39.34,25.222 l 25.25,32.5 c 8.25,-8.261 17.52,-14.75 27.78,-19.453 10.27,-4.699 21.11,-7.039 32.5,-7.039 3.99,0 8.2,0.262 12.62,0.832 4.41,0.571 8.56,1.719 12.4,3.418 3.84,1.723 7.05,4 9.64,6.852 2.55,2.847 3.83,6.687 3.83,11.551 0,3.988 -0.86,7.328 -2.57,10.058 -1.7,2.699 -3.93,5.051 -6.62,7.02 -2.73,2.011 -5.93,3.648 -9.64,4.941 -3.7,1.289 -7.68,2.629 -11.96,4.07 l -26.51,8.11 c -8.54,2.57 -16.4,5.418 -23.53,8.57 -7.11,3.117 -13.24,6.969 -18.36,11.52 -5.15,4.57 -9.13,10.07 -11.99,16.468 -2.86,6.422 -4.27,14.332 -4.27,23.743 0,10.546 2.12,19.66 6.42,27.367 4.27,7.679 9.89,13.883 16.9,18.601 6.95,4.692 14.96,8.18 23.92,10.481 8.99,2.269 18.33,3.418 28.01,3.418 14.82,0 28.14,-2.078 39.99,-6.219 11.81,-4.121 23.71,-10.75 35.69,-19.871 l -24.36,-33.348 c -8.27,7.957 -16.6,13.481 -25.01,16.457 -8.43,3 -16.9,4.473 -25.44,4.473 -11.12,0 -19.82,-1.551 -26.09,-4.68 -6.28,-3.14 -9.41,-8.422 -9.41,-15.82 0,-7.133 2.65,-12.199 7.91,-15.191 5.25,-2.989 12.45,-5.758 21.57,-8.329 l 31.66,-9.011 c 20.51,-5.692 34.7,-13.168 42.55,-22.43 7.83,-9.25 11.75,-21.449 11.75,-36.559" /><path
         id="path90"
         style="fill:#231f20;fill-opacity:1;fill-rule:nonzero;stroke:none"
         d="m 4700.95,232.441 c -5.41,0 -10.63,0.707 -15.6,2.137 -4.99,1.41 -9.39,3.711 -13.25,6.852 -3.86,3.129 -6.91,7.179 -9.19,12.179 -2.29,4.973 -3.42,11.192 -3.42,18.59 v 130.832 h -20.1 v 32.938 h 20.1 v 61.152 h 40.6 v -61.152 h 30.79 v -32.938 h -30.79 V 285.422 c 0,-5.981 1.58,-9.891 4.73,-11.731 3.12,-1.851 7.41,-2.769 12.82,-2.769 h 13.24 v -38.481 h -29.93" /><path
         id="path92"
         style="fill:#231f20;fill-opacity:1;fill-rule:nonzero;stroke:none"
         d="m 4869.85,387.648 c -4.57,3.434 -8.77,5.993 -12.62,7.711 -3.84,1.711 -8.61,2.563 -14.31,2.563 -12.25,0 -20.82,-4.07 -25.66,-12.172 -4.85,-8.148 -7.27,-18.199 -7.27,-30.172 V 232.441 h -40.63 v 203.528 h 40.63 v -22.66 c 4.84,7.98 10.75,14.191 17.76,18.613 6.94,4.398 15.88,6.629 26.7,6.629 16.53,0 31.06,-5.153 43.62,-15.41 l -28.22,-35.493" /><path
         id="path94"
         style="fill:#231f20;fill-opacity:1;fill-rule:nonzero;stroke:none"
         d="m 4916.44,232.441 v 203.528 h 40.63 V 232.441 Z m 0,244.161 v 41.039 h 40.63 v -41.039 h -40.63" /><path
         id="path96"
         style="fill:#231f20;fill-opacity:1;fill-rule:nonzero;stroke:none"
         d="m 5120.42,319.238 h -55.16 c -19.1,0 -28.64,-8.687 -28.64,-26.078 0,-11.422 2.91,-18.969 8.75,-22.66 5.84,-3.711 15.18,-5.551 28.02,-5.551 5.4,0 10.89,0.621 16.46,1.91 5.55,1.289 10.59,3.422 15.16,6.422 4.57,2.981 8.29,6.758 11.12,11.328 2.86,4.563 4.29,10.25 4.29,17.09 z m 0,-86.797 v 20.52 c -2.87,-4.551 -6.42,-8.332 -10.68,-11.313 -4.29,-3 -8.94,-5.359 -13.92,-7.07 -4.99,-1.707 -10.19,-2.906 -15.59,-3.637 -5.43,-0.711 -10.56,-1.07 -15.4,-1.07 -9.42,0 -18.17,0.938 -26.3,2.777 -8.12,1.872 -15.19,5.141 -21.15,9.84 -6,4.692 -10.71,11.051 -14.11,19.043 -3.44,7.957 -5.13,17.938 -5.13,29.91 0,11.411 1.69,21.168 5.13,29.309 3.4,8.109 8.11,14.672 14.11,19.672 5.96,4.969 12.96,8.609 20.92,10.887 8,2.3 16.69,3.421 26.09,3.421 h 56.03 V 365 c 0,12.82 -2.73,22.078 -8.13,27.789 -5.42,5.699 -15.66,8.539 -30.79,8.539 -7.13,0 -14.83,-0.918 -23.1,-2.769 -8.25,-1.868 -15.38,-6.481 -21.36,-13.899 l -27.39,26.078 c 4.87,5.981 10.35,10.852 16.48,14.551 6.12,3.699 12.46,6.551 18.98,8.531 6.54,2 13.29,3.282 20.26,3.871 6.95,0.579 13.84,0.86 20.68,0.86 26.97,0 46.23,-5.641 57.73,-16.903 11.5,-11.269 17.26,-28.449 17.26,-51.539 V 232.441 h -40.62" /></g></g></svg>